<mxfile host="65bd71144e">
    <diagram id="L--ywHBMOxAPISLe69Qm" name="Page-1">
        <mxGraphModel dx="586" dy="1734" grid="1" gridSize="10" guides="1" tooltips="1" connect="1" arrows="1" fold="1" page="1" pageScale="1" pageWidth="850" pageHeight="1100" math="0" shadow="0">
            <root>
                <mxCell id="0"/>
                <mxCell id="1" parent="0"/>
                <mxCell id="75" value="" style="endArrow=blockThin;html=1;strokeWidth=5;endFill=1;fillColor=#f5f5f5;strokeColor=#666666;" parent="1" edge="1">
                    <mxGeometry width="50" height="50" relative="1" as="geometry">
                        <mxPoint x="80" y="400" as="sourcePoint"/>
                        <mxPoint x="720" y="400" as="targetPoint"/>
                    </mxGeometry>
                </mxCell>
                <mxCell id="76" value="Time" style="text;html=1;strokeColor=none;fillColor=none;align=center;verticalAlign=middle;whiteSpace=wrap;rounded=0;fontSize=16;" parent="1" vertex="1">
                    <mxGeometry x="720" y="390" width="60" height="20" as="geometry"/>
                </mxCell>
                <mxCell id="83" style="edgeStyle=none;html=1;strokeWidth=1;fontSize=16;endArrow=none;endFill=0;dashed=1;" parent="1" edge="1">
                    <mxGeometry relative="1" as="geometry">
                        <mxPoint x="600" y="320" as="targetPoint"/>
                        <mxPoint x="200" y="520" as="sourcePoint"/>
                        <Array as="points">
                            <mxPoint x="200" y="320"/>
                        </Array>
                    </mxGeometry>
                </mxCell>
                <mxCell id="79" value="" style="ellipse;whiteSpace=wrap;html=1;aspect=fixed;fontSize=16;fillColor=#fff2cc;strokeColor=#d6b656;" parent="1" vertex="1">
                    <mxGeometry x="180" y="380" width="40" height="40" as="geometry"/>
                </mxCell>
                <mxCell id="84" style="edgeStyle=none;html=1;strokeWidth=1;fontSize=16;endArrow=none;endFill=0;dashed=1;" parent="1" edge="1">
                    <mxGeometry relative="1" as="geometry">
                        <mxPoint x="360" y="320" as="targetPoint"/>
                        <mxPoint x="360" y="520" as="sourcePoint"/>
                    </mxGeometry>
                </mxCell>
                <mxCell id="80" value="" style="ellipse;whiteSpace=wrap;html=1;aspect=fixed;fontSize=16;fillColor=#fff2cc;strokeColor=#d6b656;" parent="1" vertex="1">
                    <mxGeometry x="340" y="380" width="40" height="40" as="geometry"/>
                </mxCell>
                <mxCell id="85" style="edgeStyle=none;html=1;strokeWidth=1;fontSize=16;endArrow=none;endFill=0;dashed=1;" parent="1" edge="1">
                    <mxGeometry relative="1" as="geometry">
                        <mxPoint x="520" y="320" as="targetPoint"/>
                        <mxPoint x="520" y="520" as="sourcePoint"/>
                    </mxGeometry>
                </mxCell>
                <mxCell id="81" value="" style="ellipse;whiteSpace=wrap;html=1;aspect=fixed;fontSize=16;fillColor=#fff2cc;strokeColor=#d6b656;" parent="1" vertex="1">
                    <mxGeometry x="500" y="380" width="40" height="40" as="geometry"/>
                </mxCell>
                <mxCell id="86" value="Cron scheduled jobs at this time." style="text;html=1;strokeColor=none;fillColor=none;align=center;verticalAlign=middle;whiteSpace=wrap;rounded=0;fontSize=16;" parent="1" vertex="1">
                    <mxGeometry x="600" y="300" width="120" height="40" as="geometry"/>
                </mxCell>
                <mxCell id="87" value="" style="rounded=0;whiteSpace=wrap;html=1;fontSize=16;fillColor=#f8cecc;strokeColor=#b85450;" parent="1" vertex="1">
                    <mxGeometry x="200" y="440" width="240" height="20" as="geometry"/>
                </mxCell>
                <mxCell id="88" value="" style="dashed=0;aspect=fixed;verticalLabelPosition=bottom;verticalAlign=top;align=center;shape=mxgraph.gmdl.star;strokeColor=#b85450;fillColor=#CC0000;shadow=0;sketch=0;fontSize=16;" parent="1" vertex="1">
                    <mxGeometry x="190" y="440" width="20" height="20" as="geometry"/>
                </mxCell>
                <mxCell id="89" value="" style="rounded=0;whiteSpace=wrap;html=1;fontSize=16;fillColor=#f8cecc;strokeColor=#b85450;" parent="1" vertex="1">
                    <mxGeometry x="520" y="480" width="200" height="20" as="geometry"/>
                </mxCell>
                <mxCell id="90" value="" style="dashed=0;aspect=fixed;verticalLabelPosition=bottom;verticalAlign=top;align=center;shape=mxgraph.gmdl.star;strokeColor=#b85450;fillColor=#CC0000;shadow=0;sketch=0;fontSize=16;" parent="1" vertex="1">
                    <mxGeometry x="510" y="480" width="20" height="20" as="geometry"/>
                </mxCell>
                <mxCell id="91" value="" style="rounded=0;whiteSpace=wrap;html=1;fontSize=16;fillColor=#f5f5f5;strokeColor=#666666;fontColor=#333333;" parent="1" vertex="1">
                    <mxGeometry x="360" y="480" width="10" height="20" as="geometry"/>
                </mxCell>
                <mxCell id="92" value="Job fired." style="text;html=1;strokeColor=none;fillColor=none;align=center;verticalAlign=middle;whiteSpace=wrap;rounded=0;fontSize=16;" parent="1" vertex="1">
                    <mxGeometry x="110" y="440" width="80" height="20" as="geometry"/>
                </mxCell>
                <mxCell id="95" value="" style="endArrow=blockThin;html=1;strokeWidth=1;fontSize=16;endFill=1;" parent="1" edge="1">
                    <mxGeometry width="50" height="50" relative="1" as="geometry">
                        <mxPoint x="380" y="490" as="sourcePoint"/>
                        <mxPoint x="500" y="490" as="targetPoint"/>
                    </mxGeometry>
                </mxCell>
                <mxCell id="96" value="&lt;font style=&quot;font-size: 12px;&quot;&gt;At this time, the previous job has not ended yet.&lt;br&gt;Then reschedule to the next cron scheduled time.&lt;br&gt;&lt;/font&gt;" style="text;html=1;strokeColor=none;fillColor=none;align=center;verticalAlign=middle;whiteSpace=wrap;rounded=0;fontSize=12;spacing=1;spacingRight=4;" parent="1" vertex="1">
                    <mxGeometry x="280" y="520" width="160" height="60" as="geometry"/>
                </mxCell>
                <mxCell id="97" value="&lt;font style=&quot;font-size: 12px;&quot;&gt;Reschedule&lt;/font&gt;" style="text;html=1;strokeColor=none;fillColor=none;align=center;verticalAlign=middle;whiteSpace=wrap;rounded=0;fontSize=12;spacing=1;spacingRight=4;" parent="1" vertex="1">
                    <mxGeometry x="400" y="470" width="70" height="20" as="geometry"/>
                </mxCell>
            </root>
        </mxGraphModel>
    </diagram>
</mxfile>